<svg width="166" height="62" viewBox="0 0 166 62" fill="none" xmlns="http://www.w3.org/2000/svg">
<path d="M85.7026 20.2045L93.6002 19.6994C93.7804 20.977 94.1107 21.9278 94.6512 22.6112C95.5221 23.6809 96.7232 24.2157 98.3148 24.2157C99.4859 24.2157 100.417 23.9483 101.047 23.3837C101.648 22.938 102.008 22.2249 102.008 21.4821C102.008 20.769 101.678 20.0856 101.107 19.6399C100.507 19.1051 99.0955 18.5703 96.8734 18.0949C93.2399 17.2926 90.6274 16.223 89.0959 14.8562C87.5644 13.5786 86.6936 11.7067 86.7536 9.71593C86.7536 8.34915 87.174 6.98237 87.9548 5.85329C88.8556 4.57565 90.0868 3.56542 91.5583 3.00088C93.1498 2.31749 95.3719 1.96094 98.1646 1.96094C101.588 1.96094 104.2 2.5849 106.002 3.86255C107.804 5.11047 108.885 7.13093 109.215 9.89421L101.408 10.3399C101.198 9.15139 100.777 8.28972 100.086 7.72519C99.3958 7.16065 98.4949 6.89323 97.3238 6.89323C96.3629 6.89323 95.6422 7.10122 95.1617 7.48748C94.7113 7.84404 94.411 8.37886 94.441 8.97312C94.441 9.4188 94.6813 9.83478 95.0416 10.1022C95.432 10.4587 96.3629 10.7856 97.8343 11.0827C101.468 11.8552 104.05 12.6278 105.642 13.43C107.233 14.2322 108.374 15.2128 109.065 16.3716C109.786 17.5601 110.146 18.9268 110.116 20.3233C110.116 21.9872 109.636 23.6511 108.675 25.0476C107.684 26.5036 106.302 27.6326 104.681 28.316C102.969 29.0588 100.807 29.4451 98.2247 29.4451C93.6603 29.4451 90.5072 28.5834 88.7355 26.8304C86.9638 25.0774 85.9128 22.8786 85.7026 20.2045ZM1.89182 28.9994V2.43634H15.7352C18.2876 2.43634 20.2695 2.64433 21.6208 3.09002C22.9421 3.50599 24.1132 4.36766 24.894 5.52645C25.7648 6.80409 26.1852 8.28972 26.1552 9.83478C26.2453 12.4495 24.894 14.9454 22.5818 16.2527C21.6809 16.7578 20.6899 17.1144 19.669 17.2926C20.4197 17.5006 21.1704 17.8572 21.831 18.2732C22.3415 18.6891 22.7619 19.1645 23.1523 19.6697C23.6028 20.1748 23.9931 20.7393 24.3234 21.3336L28.3473 29.0291H18.9182L14.474 20.8582C13.9034 19.8182 13.4229 19.1348 12.9725 18.808C12.3719 18.392 11.6512 18.184 10.9305 18.184H10.2098V28.9697H1.89182V28.9994ZM10.2098 13.1923H13.7232C14.474 13.1329 15.1946 13.014 15.9153 12.8358C16.4559 12.7466 16.9363 12.4495 17.2666 12.0038C18.0774 10.9341 17.9573 9.4188 16.9664 8.49771C16.4258 8.05202 15.3748 7.81432 13.8734 7.81432H10.2098V13.1923ZM0 51.7593L7.89761 51.2542C8.07779 52.5318 8.4081 53.4826 8.94863 54.166C9.78944 55.2357 11.0206 55.8002 12.6122 55.8002C13.7833 55.8002 14.7142 55.5328 15.3448 54.9682C15.9454 54.4928 16.3057 53.8095 16.3057 53.0666C16.3057 52.3535 15.9754 51.6701 15.4048 51.2245C14.8043 50.6896 13.3929 50.1548 11.1407 49.6794C7.50724 48.8772 4.89472 47.8075 3.36324 46.4407C1.83177 45.1631 0.960926 43.2912 1.02098 41.3004C1.02098 39.9337 1.44139 38.5669 2.22214 37.4378C3.12301 36.1602 4.3542 35.1499 5.82562 34.5854C7.41715 33.902 9.63929 33.5455 12.432 33.5455C15.8553 33.5455 18.4678 34.1694 20.2695 35.4471C22.0713 36.7247 23.1223 38.7154 23.4526 41.4787L15.6451 41.9244C15.4349 40.7359 15.0145 39.8742 14.3238 39.3097C13.6632 38.7452 12.7323 38.4777 11.5611 38.5075C10.6002 38.5075 9.87952 38.7154 9.39906 39.1314C8.9186 39.488 8.64834 40.0228 8.67836 40.6171C8.67836 41.0627 8.9186 41.4787 9.27894 41.7461C9.66932 42.1027 10.6002 42.4295 12.0716 42.7266C15.7051 43.4992 18.2876 44.2717 19.8792 45.0739C21.4707 45.8762 22.6118 46.8567 23.3025 48.0155C24.0232 49.204 24.3835 50.5708 24.3835 51.9376C24.3835 53.6015 23.873 55.2357 22.9421 56.6322C21.9512 58.0881 20.5698 59.2172 18.9483 59.9005C17.2366 60.6434 15.0745 61.0296 12.492 61.0296C7.92764 61.0296 4.7746 60.168 3.00289 58.4149C1.23119 56.6322 0.240232 54.4334 0 51.7593H0Z" fill="black"/>
<path d="M39.9385 49.6796L47.2055 51.8486C46.8151 53.6611 46.0043 55.3844 44.8933 56.8998C43.8723 58.2368 42.521 59.2768 40.9895 59.9602C39.428 60.6436 37.4461 61.0001 35.0438 61.0001C32.131 61.0001 29.7287 60.5841 27.8969 59.7522C26.0351 58.9202 24.4436 57.4346 23.0923 55.325C21.741 53.2154 21.0803 50.5116 21.0803 47.2135C21.0803 42.816 22.2515 39.4288 24.6237 37.0815C26.996 34.7342 30.3292 33.5457 34.6534 33.5457C38.0467 33.5457 40.6892 34.229 42.6411 35.5661C44.563 36.9329 46.0043 39.0128 46.9653 41.8058L39.6382 43.4102C39.458 42.7863 39.1878 42.1623 38.8274 41.6275C38.377 41.0035 37.8064 40.5281 37.1158 40.1716C36.4251 39.815 35.6444 39.6665 34.8636 39.6665C32.9718 39.6665 31.5304 40.4093 30.5394 41.9246C29.7887 43.024 29.3983 44.777 29.3983 47.154C29.3983 50.0956 29.8488 52.116 30.7496 53.2154C31.6505 54.3148 32.9117 54.8496 34.5633 54.8496C36.1549 54.8496 37.356 54.4039 38.1668 53.5422C38.9776 52.6212 39.5782 51.3435 39.9385 49.6796ZM56.9049 33.9913H65.1928V43.2914H74.2616V33.9913H82.6096V60.5544H74.2616V49.7985H65.1928V60.5544H56.9049V33.9913Z" fill="black"/>
<path d="M81.4685 47.2728C81.4685 42.9348 82.6997 39.5475 85.132 37.1408C87.5644 34.7341 90.9877 33.5159 95.3419 33.5159C99.8162 33.5159 103.239 34.7044 105.672 37.0814C108.104 39.4584 109.305 42.7862 109.305 47.0648C109.305 50.1846 108.765 52.7102 107.714 54.701C106.693 56.662 105.101 58.2665 103.149 59.3361C101.137 60.4355 98.6451 61 95.6722 61C92.6393 61 90.1469 60.5246 88.165 59.5738C86.123 58.5636 84.4414 56.9888 83.3303 55.0575C82.0991 52.9776 81.4685 50.3926 81.4685 47.2728ZM89.7565 47.3025C89.7565 49.9767 90.267 51.908 91.2579 53.0965C92.2489 54.2553 93.6302 54.8495 95.3719 54.8495C97.1436 54.8495 98.5249 54.285 99.5159 53.1262C100.507 51.9674 100.987 49.9172 100.987 46.946C100.987 44.4501 100.477 42.6079 99.4559 41.4789C98.4349 40.3201 97.0535 39.7555 95.3119 39.7555C93.7804 39.6961 92.309 40.3498 91.288 41.5086C90.267 42.6674 89.7565 44.5987 89.7565 47.3025ZM117.804 47.2728C117.804 42.9348 119.035 39.5475 121.467 37.1408C123.899 34.7341 127.323 33.5159 131.677 33.5159C136.151 33.5159 139.605 34.7044 142.007 37.0814C144.409 39.4584 145.64 42.7862 145.64 47.0648C145.64 50.1846 145.1 52.7102 144.049 54.701C143.028 56.662 141.436 58.2665 139.484 59.3361C137.472 60.4355 134.98 61 132.007 61C128.974 61 126.482 60.5246 124.5 59.5738C122.458 58.5636 120.776 56.9888 119.665 55.0575C118.434 52.9776 117.804 50.3926 117.804 47.2728ZM126.092 47.3025C126.092 49.9767 126.602 51.908 127.593 53.0965C128.584 54.2553 129.965 54.8495 131.707 54.8495C133.479 54.8495 134.86 54.285 135.851 53.1262C136.842 51.9674 137.322 49.9172 137.322 46.946C137.322 44.4501 136.812 42.6079 135.791 41.4789C134.77 40.3201 133.389 39.7555 131.647 39.7555C130.115 39.6961 128.614 40.3498 127.623 41.5086C126.602 42.6674 126.092 44.5987 126.092 47.3025Z" fill="black"/>
<path d="M144.77 33.9912H153.058V54.0175H166V60.5543H144.74V33.9912H144.77Z" fill="black"/>
<path d="M135.634 32.4583C143.979 26.2364 146.552 15.6895 141.381 8.90092C136.211 2.11238 125.256 1.65296 116.911 7.87478C108.567 14.0966 105.994 24.6436 111.164 31.4321C116.335 38.2207 127.29 38.6801 135.634 32.4583Z" stroke="black" stroke-width="4" stroke-miterlimit="10"/>
<path d="M117.834 18.2137L120.836 16.1338L124.53 21.3335C125.161 22.1655 125.641 23.0569 126.001 24.0374C126.212 24.7802 126.152 25.5824 125.851 26.2955C125.461 27.1869 124.83 27.9297 123.99 28.4646C122.999 29.148 122.158 29.5342 121.437 29.6531C120.746 29.7719 120.026 29.6531 119.365 29.3559C118.644 28.9994 118.014 28.4943 117.533 27.8406L120.116 25.4636C120.326 25.7904 120.596 26.0876 120.897 26.3253C121.107 26.4738 121.347 26.563 121.617 26.563C121.827 26.563 122.038 26.4738 122.188 26.355C122.488 26.1767 122.698 25.8201 122.668 25.4636C122.578 24.9585 122.368 24.4534 122.038 24.0671L117.834 18.2137ZM126.842 21.5118L129.575 19.3725C129.875 19.729 130.266 19.9965 130.686 20.145C131.287 20.3233 131.917 20.2045 132.428 19.8182C132.788 19.5805 133.088 19.2536 133.208 18.8377C133.389 18.3028 133.088 17.7086 132.548 17.5303C132.458 17.5006 132.368 17.4709 132.278 17.4709C131.917 17.4412 131.287 17.5897 130.356 17.976C128.824 18.6 127.623 18.8377 126.722 18.7485C125.851 18.6594 125.041 18.2137 124.56 17.4709C124.2 16.9658 124.02 16.3715 123.99 15.7773C123.99 15.0939 124.17 14.4105 124.56 13.846C125.131 13.0437 125.821 12.3603 126.662 11.8255C127.923 10.9638 129.034 10.5479 129.995 10.5479C130.956 10.5479 131.857 10.9935 132.698 11.9146L129.995 14.0242C129.455 13.3408 128.434 13.1923 127.743 13.7271L127.653 13.8162C127.353 13.9945 127.143 14.2619 127.022 14.5888C126.932 14.8265 126.992 15.0939 127.143 15.3019C127.263 15.4504 127.443 15.5693 127.653 15.5693C127.893 15.599 128.314 15.4801 128.914 15.2127C130.416 14.5888 131.557 14.2322 132.338 14.1134C132.998 13.9945 133.689 14.0539 134.319 14.3214C134.89 14.5591 135.37 14.975 135.701 15.4801C136.121 16.0744 136.361 16.7875 136.391 17.5303C136.422 18.3028 136.211 19.0457 135.791 19.6993C135.25 20.5016 134.56 21.185 133.749 21.7198C132.097 22.8489 130.746 23.3243 129.665 23.146C128.494 22.9677 127.533 22.3735 126.842 21.5118Z" fill="black"/>
</svg>
